<svg xmlns="http://www.w3.org/2000/svg" xmlns:xlink="http://www.w3.org/1999/xlink" viewBox="0 0 537.82 413.37"><defs><style>.a,.b,.c{fill:none;stroke-miterlimit:10;stroke-width:20px;}.a{stroke:url(#a);}.b{stroke:#ff886a;}.c{stroke:url(#b);}.d{fill:#ff886a;}</style><linearGradient id="a" x1="278.27" y1="122.96" x2="537.82" y2="122.96" gradientUnits="userSpaceOnUse"><stop offset="0.42" stop-color="#ff886a"/><stop offset="1" stop-color="#ff9"/></linearGradient><linearGradient id="b" x1="25.22" y1="388.16" x2="221.81" y2="191.57" xlink:href="#a"/></defs><path class="a" d="M286.72,65.93a76.12,76.12,0,0,1,87.83-31.68L475.23,67a76.08,76.08,0,0,1-47,144.72L327.53,179a75.91,75.91,0,0,1-20.37-10.18"/><path class="b" d="M278.5,133.66a76.21,76.21,0,0,1-96-42.26"/><path class="c" d="M214.73,198.64a76.09,76.09,0,0,1,0,107.6l-74.86,74.85a76.08,76.08,0,0,1-107.6-107.6l74.86-74.85A76.08,76.08,0,0,1,214.73,198.64Z"/><rect class="d" x="122.61" y="29.09" width="45.41" height="16.51" rx="8.26" transform="translate(82.89 -99.09) rotate(51)"/><rect class="d" x="101.77" y="55.47" width="45.41" height="16.51" rx="8.26" transform="translate(34.79 -43.57) rotate(23)"/><rect class="d" x="151.09" y="14.08" width="45.41" height="16.51" rx="8.26" transform="translate(156.46 -152.03) rotate(77)"/></svg>