<svg xmlns="http://www.w3.org/2000/svg" xmlns:xlink="http://www.w3.org/1999/xlink" viewBox="0 0 375.8 375.8"><defs><style>.a,.b,.c{fill:none;stroke-miterlimit:10;stroke-width:20px;}.a{stroke:url(#a);}.b{stroke:url(#b);}.c{stroke:url(#c);}</style><linearGradient id="a" x1="-73.21" y1="140.24" x2="176.79" y2="140.24" gradientTransform="translate(-22.18 199.65) rotate(-45)" gradientUnits="userSpaceOnUse"><stop offset="0" stop-color="#ff886a"/><stop offset="1" stop-color="#ff9"/></linearGradient><linearGradient id="b" x1="136.93" y1="140.24" x2="386.93" y2="140.24" xlink:href="#a"/><linearGradient id="c" x1="103.07" y1="140.24" x2="209.62" y2="140.24" xlink:href="#a"/></defs><path class="a" d="M234.47,234.47a75.76,75.76,0,0,1-19.73,34.19l-74.86,74.86a76.08,76.08,0,0,1-107.6-107.6l74.86-74.86a75.76,75.76,0,0,1,34.19-19.73,76.12,76.12,0,0,0,93.14,93.14Z"/><path class="b" d="M343.51,32.28a76.09,76.09,0,0,1,0,107.6l-74.86,74.86a75.76,75.76,0,0,1-34.19,19.73,76.12,76.12,0,0,0-93.14-93.14,75.76,75.76,0,0,1,19.73-34.19l74.86-74.86A76.08,76.08,0,0,1,343.51,32.28Z"/><path class="c" d="M218.14,157.66c19.88,19.88,25,49.56,16,77.17-27.6,9-57.28,3.92-77.17-16S132,169.31,141,141.7C168.58,132.71,198.25,137.78,218.14,157.66Z"/></svg>