<svg xmlns="http://www.w3.org/2000/svg" xmlns:xlink="http://www.w3.org/1999/xlink" viewBox="0 0 566.93 504.91"><defs><style>.a{fill:#cbeeff;}.b,.c,.d{fill:none;stroke-miterlimit:10;stroke-width:10px;}.b{stroke:url(#a);}.c{stroke:url(#b);}.d{stroke:url(#c);}</style><linearGradient id="a" x1="-228.63" y1="125.69" x2="6.41" y2="125.69" gradientTransform="matrix(0.22, -0.22, 0.19, 0.19, 260.81, 231.27)" gradientUnits="userSpaceOnUse"><stop offset="0.42" stop-color="#ff886a"/><stop offset="1" stop-color="#ff9"/></linearGradient><linearGradient id="b" x1="-13.52" y1="125.69" x2="221.51" y2="125.69" xlink:href="#a"/><linearGradient id="c" x1="-52.35" y1="125.69" x2="44.21" y2="125.69" xlink:href="#a"/></defs><rect class="a" width="566.93" height="51.32" rx="11.53"/><path d="M8.53,20.86h1.53V26h0a2.79,2.79,0,0,1,1.1-1,3.18,3.18,0,0,1,1.57-.43c1.14,0,3,.68,3,3.52v4.9H14.19V28.2c0-1.33-.51-2.45-2-2.45a2.19,2.19,0,0,0-2.06,1.5,1.68,1.68,0,0,0-.11.71v5H8.53Z"/><path d="M20,22.34V24.7h2.21v1.14H20v4.43c0,1,.3,1.6,1.16,1.6a3.56,3.56,0,0,0,.89-.1l.07,1.12a3.83,3.83,0,0,1-1.36.21,2.14,2.14,0,0,1-1.66-.63,3,3,0,0,1-.6-2.14V25.84H17.19V24.7H18.5v-2Z"/><path d="M25.79,22.34V24.7H28v1.14h-2.2v4.43c0,1,.29,1.6,1.15,1.6a3.56,3.56,0,0,0,.89-.1l.07,1.12a3.83,3.83,0,0,1-1.36.21,2.15,2.15,0,0,1-1.66-.63,3,3,0,0,1-.6-2.14V25.84H23V24.7h1.31v-2Z"/><path d="M29.72,27.38c0-1.05,0-1.9-.07-2.68H31l.07,1.41h0a3.36,3.36,0,0,1,3-1.6c2,0,3.58,1.68,3.58,4.18,0,3-1.85,4.42-3.84,4.42a3,3,0,0,1-2.61-1.29h0v4.47H29.72Zm1.52,2.2a2.92,2.92,0,0,0,.07.61,2.35,2.35,0,0,0,2.3,1.75c1.63,0,2.57-1.29,2.57-3.18,0-1.65-.89-3.06-2.51-3.06a2.45,2.45,0,0,0-2.33,1.85,2.51,2.51,0,0,0-.1.62Z"/><path d="M39.45,31.4a4.19,4.19,0,0,0,2,.59c1.12,0,1.65-.54,1.65-1.22s-.44-1.11-1.58-1.52c-1.52-.52-2.23-1.34-2.23-2.33,0-1.32,1.1-2.41,2.92-2.41A4.31,4.31,0,0,1,44.3,25l-.38,1.09a3.38,3.38,0,0,0-1.73-.48c-.91,0-1.42.51-1.42,1.12s.51,1,1.61,1.4c1.47.54,2.22,1.26,2.22,2.48,0,1.45-1.15,2.47-3.16,2.47a4.84,4.84,0,0,1-2.38-.57Z"/><path d="M46.21,26.06a1,1,0,1,1,2.08,0,1,1,0,1,1-2.08,0Zm0,6a1,1,0,1,1,2.08,0,1,1,0,1,1-2.08,0Z"/><path d="M48.9,33.61l4.87-12.33H55L50.07,33.61Z"/><path d="M54.89,33.61l4.87-12.33H61L56.06,33.61Z"/><path d="M62.73,24.7l1.85,4.86c.2.54.41,1.19.55,1.68h0c.16-.49.33-1.12.54-1.71l1.68-4.83H69l-2.3,5.86c-1.1,2.82-1.85,4.27-2.9,5.15a4.17,4.17,0,0,1-1.89,1l-.38-1.26a3.82,3.82,0,0,0,1.34-.73A4.55,4.55,0,0,0,64.17,33a1,1,0,0,0,.12-.36,1.39,1.39,0,0,0-.11-.39L61.06,24.7Z"/><path d="M77.88,28.74a4.07,4.07,0,0,1-4.21,4.37,4,4,0,0,1-4-4.23,4.07,4.07,0,0,1,4.19-4.37A3.94,3.94,0,0,1,77.88,28.74Zm-6.71.09c0,1.8,1.07,3.16,2.57,3.16s2.57-1.34,2.57-3.2c0-1.39-.72-3.16-2.54-3.16S71.17,27.26,71.17,28.83Z"/><path d="M86.89,30.68c0,.85,0,1.6.07,2.25H85.6l-.09-1.35h0a3.18,3.18,0,0,1-2.8,1.53c-1.33,0-2.91-.71-2.91-3.6V24.7H81.3v4.55c0,1.57.49,2.62,1.89,2.62a2.23,2.23,0,0,0,2-1.36,2.28,2.28,0,0,0,.14-.76V24.7h1.53Z"/><path d="M89.44,27.26c0-1,0-1.8-.07-2.56h1.35l0,1.61h.07a2.54,2.54,0,0,1,2.34-1.8,1.9,1.9,0,0,1,.44,0V26a2.73,2.73,0,0,0-.53,0A2.13,2.13,0,0,0,91,27.84a4.88,4.88,0,0,0-.07.7v4.39H89.44Z"/><path d="M95.23,20.86h1.53V32.93H95.23Z"/><path d="M101.06,22.39a1,1,0,0,1-1.9,0,.93.93,0,0,1,1-.94A.9.9,0,0,1,101.06,22.39ZM99.35,32.93V24.7h1.54v8.23Z"/><path d="M103.44,26.92c0-.84,0-1.54-.07-2.22h1.36l.09,1.36h0a3.14,3.14,0,0,1,2.8-1.55c1.17,0,3,.68,3,3.5v4.92H109.1V28.18c0-1.32-.51-2.43-2-2.43a2.18,2.18,0,0,0-2.06,1.53,2.1,2.1,0,0,0-.11.7v4.95h-1.53Z"/><path d="M114.65,28.47h0c.21-.29.5-.64.75-.93l2.48-2.84h1.85l-3.27,3.38,3.72,4.85h-1.87L115.44,29l-.79.85v3.1h-1.52V20.86h1.52Z"/><path d="M121.2,32a1,1,0,0,1,1-1.07,1.07,1.07,0,0,1,0,2.14A1,1,0,0,1,121.2,32Z"/><path d="M131.21,32.62a5.83,5.83,0,0,1-2.43.48,4,4,0,0,1-4.21-4.2,4.24,4.24,0,0,1,4.55-4.37,5.37,5.37,0,0,1,2.13.42l-.35,1.16a3.72,3.72,0,0,0-1.78-.39,2.88,2.88,0,0,0-3,3.11,2.86,2.86,0,0,0,2.93,3.08A4.58,4.58,0,0,0,131,31.5Z"/><path d="M140.56,28.74a4.07,4.07,0,0,1-4.21,4.37,4,4,0,0,1-4.06-4.23,4.08,4.08,0,0,1,4.2-4.37A3.94,3.94,0,0,1,140.56,28.74Zm-6.71.09c0,1.8,1.06,3.16,2.57,3.16s2.57-1.34,2.57-3.2c0-1.39-.72-3.16-2.54-3.16S133.85,27.26,133.85,28.83Z"/><path d="M142.5,26.92c0-.84,0-1.54-.07-2.22h1.34l.07,1.32h0a2.94,2.94,0,0,1,2.66-1.51,2.49,2.49,0,0,1,2.39,1.65h0a3.31,3.31,0,0,1,.94-1.07,3,3,0,0,1,1.87-.58c1.12,0,2.78.72,2.78,3.57v4.85h-1.5V28.27c0-1.58-.6-2.53-1.84-2.53a2,2,0,0,0-1.82,1.35,2.46,2.46,0,0,0-.12.75v5.09h-1.5V28c0-1.31-.59-2.26-1.76-2.26a2.08,2.08,0,0,0-1.91,1.49A2,2,0,0,0,144,28v5h-1.5Z"/><path d="M155.77,33.61l4.88-12.33h1.18l-4.89,12.33Z"/><path d="M170.13,30.68c0,.85,0,1.6.07,2.25h-1.36l-.09-1.35h0a3.19,3.19,0,0,1-2.8,1.53c-1.33,0-2.92-.71-2.92-3.6V24.7h1.54v4.55c0,1.57.49,2.62,1.89,2.62a2.23,2.23,0,0,0,2-1.36,2.28,2.28,0,0,0,.14-.76V24.7h1.53Z"/><path d="M172.47,31.4a4.23,4.23,0,0,0,2,.59c1.12,0,1.64-.54,1.64-1.22s-.43-1.11-1.57-1.52c-1.52-.52-2.24-1.34-2.24-2.33,0-1.32,1.1-2.41,2.92-2.41a4.32,4.32,0,0,1,2.08.51L177,26.11a3.44,3.44,0,0,0-1.73-.48c-.91,0-1.42.51-1.42,1.12s.51,1,1.61,1.4c1.47.54,2.22,1.26,2.22,2.48,0,1.45-1.16,2.47-3.17,2.47a4.8,4.8,0,0,1-2.37-.57Z"/><path d="M180.46,29.08a2.67,2.67,0,0,0,2.9,2.86,5.66,5.66,0,0,0,2.34-.43l.26,1.08a7.16,7.16,0,0,1-2.81.51A3.87,3.87,0,0,1,179,29c0-2.48,1.5-4.44,4-4.44,2.76,0,3.5,2.36,3.5,3.88,0,.3,0,.54,0,.69ZM185,28a2.14,2.14,0,0,0-2.13-2.43A2.52,2.52,0,0,0,180.47,28Z"/><path d="M188.35,27.26c0-1,0-1.8-.07-2.56h1.35l.05,1.61h.07a2.53,2.53,0,0,1,2.34-1.8,1.9,1.9,0,0,1,.44,0V26a2.73,2.73,0,0,0-.53,0,2.13,2.13,0,0,0-2.06,1.92,4.88,4.88,0,0,0-.07.7v4.39h-1.52Z"/><path d="M193.85,31.4a4.23,4.23,0,0,0,2,.59c1.12,0,1.64-.54,1.64-1.22s-.43-1.11-1.57-1.52c-1.52-.52-2.24-1.34-2.24-2.33,0-1.32,1.11-2.41,2.92-2.41a4.32,4.32,0,0,1,2.08.51l-.38,1.09a3.41,3.41,0,0,0-1.73-.48c-.91,0-1.42.51-1.42,1.12s.51,1,1.61,1.4c1.47.54,2.22,1.26,2.22,2.48,0,1.45-1.15,2.47-3.16,2.47a4.81,4.81,0,0,1-2.38-.57Z"/><path d="M199.69,33.61l4.87-12.33h1.19l-4.89,12.33Z"/><path d="M206.48,32.93V32l1.21-1.14c2.9-2.69,4.21-4.12,4.23-5.78a2,2,0,0,0-2.26-2.16,3.91,3.91,0,0,0-2.41.94l-.49-1.06A5.12,5.12,0,0,1,210,21.69a3.16,3.16,0,0,1,3.48,3.21c0,2-1.52,3.69-3.92,5.93l-.91.82v0h5.1v1.25Z"/><path d="M222.22,23.13h-4.33L217.45,26a7.22,7.22,0,0,1,.93-.06,4.91,4.91,0,0,1,2.45.59,3.14,3.14,0,0,1,1.62,2.84c0,2.16-1.76,3.77-4.23,3.77a5.67,5.67,0,0,1-2.83-.68l.39-1.14a5.06,5.06,0,0,0,2.43.62,2.48,2.48,0,0,0,2.69-2.4c0-1.43-1-2.45-3.27-2.45a12.14,12.14,0,0,0-1.57.12l.73-5.3h5.43Z"/><path d="M231.78,21.88v1l-4.94,10.07h-1.59l4.92-9.78v0h-5.55V21.88Z"/><path d="M236.71,23.27h0l-2,1-.3-1.14,2.48-1.29h1.31V32.93h-1.48Z"/><path d="M241.53,33.61l4.87-12.33h1.19L242.7,33.61Z"/><path d="M253.49,32.93l-.12-1h-.05a3.19,3.19,0,0,1-2.59,1.22,2.37,2.37,0,0,1-2.58-2.36c0-2,1.81-3.08,5.08-3.06v-.17a1.71,1.71,0,0,0-1.92-1.9,4.22,4.22,0,0,0-2.2.61l-.35-1a5.38,5.38,0,0,1,2.78-.73c2.58,0,3.21,1.72,3.21,3.37V31a11.89,11.89,0,0,0,.14,2Zm-.22-4.2c-1.68,0-3.59.25-3.59,1.85A1.35,1.35,0,0,0,251.13,32a2.11,2.11,0,0,0,2.05-1.38,1.56,1.56,0,0,0,.09-.47Z"/><path d="M263.26,32.62a5.83,5.83,0,0,1-2.43.48,4,4,0,0,1-4.21-4.2,4.24,4.24,0,0,1,4.54-4.37,5.33,5.33,0,0,1,2.13.42l-.35,1.16a3.66,3.66,0,0,0-1.78-.39,2.88,2.88,0,0,0-3,3.11,2.86,2.86,0,0,0,2.94,3.08A4.62,4.62,0,0,0,263,31.5Z"/><path d="M267.14,22.34V24.7h2.2v1.14h-2.2v4.43c0,1,.29,1.6,1.15,1.6a3.56,3.56,0,0,0,.89-.1l.07,1.12a3.83,3.83,0,0,1-1.36.21,2.14,2.14,0,0,1-1.66-.63,3,3,0,0,1-.6-2.14V25.84h-1.31V24.7h1.31v-2Z"/><path d="M272.78,22.39a1,1,0,0,1-1.91,0,.93.93,0,0,1,1-.94A.91.91,0,0,1,272.78,22.39Zm-1.71,10.54V24.7h1.53v8.23Z"/><path d="M282.81,28.74a4.07,4.07,0,0,1-4.21,4.37,4,4,0,0,1-4.06-4.23,4.07,4.07,0,0,1,4.2-4.37A4,4,0,0,1,282.81,28.74Zm-6.71.09c0,1.8,1.06,3.16,2.57,3.16s2.56-1.34,2.56-3.2c0-1.39-.71-3.16-2.53-3.16S276.1,27.26,276.1,28.83Z"/><path d="M284.75,26.92c0-.84,0-1.54-.08-2.22H286l.08,1.36h0a3.14,3.14,0,0,1,2.8-1.55c1.17,0,3,.68,3,3.5v4.92h-1.53V28.18c0-1.32-.51-2.43-2-2.43a2.18,2.18,0,0,0-2.06,1.53,2.1,2.1,0,0,0-.11.7v4.95h-1.53Z"/><path d="M294.23,31.4a4.2,4.2,0,0,0,2,.59c1.12,0,1.64-.54,1.64-1.22s-.44-1.11-1.57-1.52c-1.52-.52-2.24-1.34-2.24-2.33,0-1.32,1.1-2.41,2.92-2.41a4.32,4.32,0,0,1,2.08.51l-.39,1.09a3.38,3.38,0,0,0-1.73-.48c-.9,0-1.41.51-1.41,1.12s.51,1,1.61,1.4c1.46.54,2.21,1.26,2.21,2.48,0,1.45-1.15,2.47-3.16,2.47a4.8,4.8,0,0,1-2.37-.57Z"/><path d="M300.07,33.61l4.87-12.33h1.19l-4.89,12.33Z"/><path d="M307.28,32.93c0-.57.07-1.4.07-2.13V20.86h1.52V26h0a3.18,3.18,0,0,1,2.88-1.51c2.09,0,3.58,1.7,3.56,4.2,0,2.94-1.9,4.4-3.79,4.4a3,3,0,0,1-2.83-1.54h-.05l-.07,1.36Zm1.59-3.3a3.19,3.19,0,0,0,.07.54,2.36,2.36,0,0,0,2.31,1.75c1.6,0,2.57-1.27,2.57-3.16,0-1.65-.88-3.06-2.52-3.06A2.43,2.43,0,0,0,309,27.54a2.54,2.54,0,0,0-.09.61Z"/><path d="M324.94,28.74a4.07,4.07,0,0,1-4.21,4.37,4,4,0,0,1-4.05-4.23,4.07,4.07,0,0,1,4.19-4.37A3.94,3.94,0,0,1,324.94,28.74Zm-6.71.09c0,1.8,1.07,3.16,2.57,3.16s2.57-1.34,2.57-3.2c0-1.39-.72-3.16-2.53-3.16S318.23,27.26,318.23,28.83Z"/><path d="M334.53,28.74a4.07,4.07,0,0,1-4.21,4.37,4,4,0,0,1-4.05-4.23,4.07,4.07,0,0,1,4.19-4.37A3.94,3.94,0,0,1,334.53,28.74Zm-6.71.09c0,1.8,1.07,3.16,2.57,3.16s2.57-1.34,2.57-3.2c0-1.39-.72-3.16-2.53-3.16S327.82,27.26,327.82,28.83Z"/><path d="M338,28.47h0c.21-.29.5-.64.75-.93l2.48-2.84h1.85l-3.27,3.38,3.73,4.85H341.7L338.78,29l-.79.85v3.1h-1.52V20.86H338Z"/><path d="M344.46,31.4a4.16,4.16,0,0,0,2,.59c1.12,0,1.64-.54,1.64-1.22s-.43-1.11-1.57-1.52c-1.52-.52-2.23-1.34-2.23-2.33,0-1.32,1.1-2.41,2.91-2.41a4.32,4.32,0,0,1,2.08.51l-.38,1.09a3.41,3.41,0,0,0-1.73-.48c-.91,0-1.42.51-1.42,1.12s.51,1,1.61,1.4c1.47.54,2.22,1.26,2.22,2.48,0,1.45-1.15,2.47-3.16,2.47a4.84,4.84,0,0,1-2.38-.57Z"/><path d="M350.29,33.61l4.88-12.33h1.18l-4.89,12.33Z"/><path d="M357.58,27.26c0-1,0-1.8-.08-2.56h1.35l0,1.61H359a2.54,2.54,0,0,1,2.34-1.8,1.9,1.9,0,0,1,.44,0V26a2.62,2.62,0,0,0-.52,0,2.13,2.13,0,0,0-2.06,1.92,3.77,3.77,0,0,0-.07.7v4.39h-1.52Z"/><path d="M364,29.08a2.67,2.67,0,0,0,2.9,2.86,5.66,5.66,0,0,0,2.34-.43l.26,1.08a7.16,7.16,0,0,1-2.81.51A3.88,3.88,0,0,1,362.5,29c0-2.48,1.5-4.44,4-4.44,2.76,0,3.49,2.36,3.49,3.88a5.05,5.05,0,0,1,0,.69ZM368.48,28a2.16,2.16,0,0,0-2.14-2.43A2.51,2.51,0,0,0,364,28Z"/><path d="M379.15,24.7c0,.59-.07,1.26-.07,2.26v4.78c0,1.88-.38,3-1.21,3.75a4.54,4.54,0,0,1-3.07,1A5.59,5.59,0,0,1,372,35.8l.38-1.14a4.86,4.86,0,0,0,2.48.65c1.57,0,2.73-.8,2.73-2.88v-.92h0a3,3,0,0,1-2.69,1.38,3.71,3.71,0,0,1-3.6-4c0-2.79,1.87-4.37,3.81-4.37a2.83,2.83,0,0,1,2.64,1.43h0l.07-1.24ZM377.56,28a2.14,2.14,0,0,0-.09-.69,2.21,2.21,0,0,0-2.15-1.58c-1.46,0-2.51,1.21-2.51,3.11,0,1.62.84,3,2.5,3a2.24,2.24,0,0,0,2.13-1.53,2.43,2.43,0,0,0,.12-.8Z"/><path d="M383.24,22.39a1,1,0,0,1-1.91,0,.93.93,0,0,1,1-.94A.91.91,0,0,1,383.24,22.39Zm-1.72,10.54V24.7h1.54v8.23Z"/><path d="M385.4,31.4a4.23,4.23,0,0,0,2,.59c1.12,0,1.64-.54,1.64-1.22s-.44-1.11-1.57-1.52c-1.52-.52-2.24-1.34-2.24-2.33,0-1.32,1.1-2.41,2.92-2.41a4.32,4.32,0,0,1,2.08.51l-.39,1.09a3.38,3.38,0,0,0-1.73-.48c-.9,0-1.41.51-1.41,1.12s.51,1,1.61,1.4c1.46.54,2.22,1.26,2.22,2.48,0,1.45-1.16,2.47-3.17,2.47a4.8,4.8,0,0,1-2.37-.57Z"/><path d="M394.38,22.34V24.7h2.2v1.14h-2.2v4.43c0,1,.3,1.6,1.15,1.6a3.66,3.66,0,0,0,.9-.1l.07,1.12a3.85,3.85,0,0,1-1.37.21,2.17,2.17,0,0,1-1.66-.63,3,3,0,0,1-.59-2.14V25.84h-1.31V24.7h1.31v-2Z"/><path d="M399.06,29.08a2.68,2.68,0,0,0,2.9,2.86,5.62,5.62,0,0,0,2.34-.43l.27,1.08a7.17,7.17,0,0,1-2.82.51A3.87,3.87,0,0,1,397.6,29c0-2.48,1.5-4.44,4-4.44,2.76,0,3.5,2.36,3.5,3.88a4.74,4.74,0,0,1-.06.69ZM403.57,28a2.14,2.14,0,0,0-2.13-2.43A2.51,2.51,0,0,0,399.08,28Z"/><path d="M407,27.26c0-1,0-1.8-.07-2.56h1.34l.06,1.61h.07a2.53,2.53,0,0,1,2.34-1.8,1.81,1.81,0,0,1,.43,0V26a2.54,2.54,0,0,0-.52,0,2.13,2.13,0,0,0-2.06,1.92,3.77,3.77,0,0,0-.07.7v4.39H407Z"/><path d="M413.86,29.68l0-.44a3.84,3.84,0,0,1,1.09-2.94A3.73,3.73,0,0,0,416.13,24c0-.87-.56-1.45-1.66-1.46a3.15,3.15,0,0,0-1.76.52L412.29,22a4.64,4.64,0,0,1,2.5-.68c2,0,2.91,1.21,2.91,2.5a4.54,4.54,0,0,1-1.5,3,3.31,3.31,0,0,0-1,2.5l0,.44Zm-.39,2.38a1,1,0,0,1,1-1.07,1.06,1.06,0,1,1-1,1.07Z"/><path d="M425.53,31.65h0a3,3,0,0,1-2.76,1.46c-2,0-3.58-1.66-3.58-4.16,0-3.08,2.05-4.44,3.83-4.44a2.79,2.79,0,0,1,2.6,1.43h0l.05-1.24h1.45c0,.7-.05,1.41-.05,2.26v9.33h-1.54Zm0-3.62a2.65,2.65,0,0,0-.07-.63,2.24,2.24,0,0,0-2.2-1.7c-1.59,0-2.55,1.31-2.55,3.16,0,1.64.8,3.06,2.5,3.06a2.28,2.28,0,0,0,2.2-1.63,2.4,2.4,0,0,0,.12-.71Z"/><path d="M429,27.2v-1h9v1Zm0,3.33v-1h9v1Z"/><path d="M440,26.92c0-.84,0-1.54-.07-2.22h1.36l.09,1.36h0a3.14,3.14,0,0,1,2.8-1.55c1.17,0,3,.68,3,3.5v4.92h-1.54V28.18c0-1.32-.51-2.43-2-2.43a2.18,2.18,0,0,0-2.06,1.53,2.11,2.11,0,0,0-.1.7v4.95H440Z"/><path d="M450.56,29.08a2.68,2.68,0,0,0,2.9,2.86,5.62,5.62,0,0,0,2.34-.43l.26,1.08a7.12,7.12,0,0,1-2.81.51A3.88,3.88,0,0,1,449.09,29c0-2.48,1.51-4.44,4-4.44,2.76,0,3.49,2.36,3.49,3.88a5.05,5.05,0,0,1-.05.69ZM455.07,28a2.14,2.14,0,0,0-2.13-2.43A2.51,2.51,0,0,0,450.58,28Z"/><path d="M459.31,29.08a2.68,2.68,0,0,0,2.9,2.86,5.62,5.62,0,0,0,2.34-.43l.27,1.08a7.17,7.17,0,0,1-2.82.51A3.87,3.87,0,0,1,457.85,29c0-2.48,1.5-4.44,4-4.44,2.76,0,3.5,2.36,3.5,3.88a4.74,4.74,0,0,1-.06.69ZM463.82,28a2.14,2.14,0,0,0-2.13-2.43A2.51,2.51,0,0,0,459.33,28Z"/><path d="M474.51,20.86V30.8c0,.73,0,1.56.07,2.13H473.2l-.07-1.43h0a3.16,3.16,0,0,1-2.89,1.61c-2,0-3.61-1.68-3.61-4.18,0-2.74,1.73-4.42,3.79-4.42a2.85,2.85,0,0,1,2.55,1.26h0V20.86ZM473,28.05a2.31,2.31,0,0,0-2.28-2.37c-1.59,0-2.54,1.36-2.54,3.18s.84,3.05,2.5,3.05a2.3,2.3,0,0,0,2.25-1.79,2.24,2.24,0,0,0,.07-.65Z"/><path d="M480.63,27.78v1.1h-4.32v-1.1Z"/><path d="M484.28,22.34V24.7h2.2v1.14h-2.2v4.43c0,1,.29,1.6,1.15,1.6a3.56,3.56,0,0,0,.89-.1l.07,1.12a3.83,3.83,0,0,1-1.36.21,2.15,2.15,0,0,1-1.66-.63,3,3,0,0,1-.6-2.14V25.84h-1.31V24.7h1.31v-2Z"/><path d="M495.75,28.74a4.07,4.07,0,0,1-4.21,4.37,4,4,0,0,1-4.05-4.23,4.07,4.07,0,0,1,4.19-4.37A3.94,3.94,0,0,1,495.75,28.74Zm-6.7.09c0,1.8,1.06,3.16,2.56,3.16s2.57-1.34,2.57-3.2c0-1.39-.71-3.16-2.53-3.16S489.05,27.26,489.05,28.83Z"/><path d="M501.52,27.78v1.1H497.2v-1.1Z"/><path d="M503.32,26.92c0-.84,0-1.54-.07-2.22h1.34l.07,1.32h.06a2.91,2.91,0,0,1,2.65-1.51,2.51,2.51,0,0,1,2.4,1.65h0a3.31,3.31,0,0,1,.94-1.07,3,3,0,0,1,1.87-.58c1.12,0,2.78.72,2.78,3.57v4.85h-1.5V28.27c0-1.58-.6-2.53-1.84-2.53a2,2,0,0,0-1.81,1.35,2.45,2.45,0,0,0-.13.75v5.09h-1.5V28c0-1.31-.59-2.26-1.76-2.26a2.09,2.09,0,0,0-1.91,1.49,2.19,2.19,0,0,0-.12.73v5h-1.5Z"/><path d="M519.6,22.39a1,1,0,0,1-1.9,0,.93.93,0,0,1,1-.94A.9.9,0,0,1,519.6,22.39Zm-1.71,10.54V24.7h1.53v8.23Z"/><path d="M522,26.92c0-.84,0-1.54-.07-2.22h1.36l.09,1.36h0a3.14,3.14,0,0,1,2.8-1.55c1.17,0,3,.68,3,3.5v4.92h-1.53V28.18c0-1.32-.51-2.43-2-2.43a2.18,2.18,0,0,0-2.06,1.53,2.1,2.1,0,0,0-.11.7v4.95H522Z"/><path d="M533.38,22.39a1,1,0,0,1-1.9,0,.93.93,0,0,1,1-.94A.9.9,0,0,1,533.38,22.39Zm-1.71,10.54V24.7h1.54v8.23Z"/><path d="M535.92,32.93V25.84h-1.19V24.7h1.19v-.39a3.86,3.86,0,0,1,1-2.88,3,3,0,0,1,2.07-.76,3.64,3.64,0,0,1,1.31.24l-.21,1.15a2.41,2.41,0,0,0-1-.18c-1.31,0-1.64,1.12-1.64,2.38v.44h2v1.14h-2v7.09Z"/><path d="M541.42,24.7l1.85,4.86c.19.54.4,1.19.54,1.68h0c.15-.49.33-1.12.54-1.71l1.68-4.83h1.62l-2.31,5.86c-1.1,2.82-1.85,4.27-2.9,5.15a4.19,4.19,0,0,1-1.88,1l-.39-1.26a3.85,3.85,0,0,0,1.35-.73A4.54,4.54,0,0,0,542.85,33a1,1,0,0,0,.12-.36,1.27,1.27,0,0,0-.1-.39l-3.13-7.58Z"/><path d="M556.51,32.93l-1.1-1.13A4.89,4.89,0,0,1,552,33.11a3.29,3.29,0,0,1-3.62-3.21,3.76,3.76,0,0,1,2.31-3.35V26.5a3.89,3.89,0,0,1-1-2.4,2.82,2.82,0,0,1,3-2.82,2.42,2.42,0,0,1,2.6,2.43c0,1.21-.71,2.16-2.58,3.06v.05c1,1.13,2.11,2.38,2.86,3.2a8.3,8.3,0,0,0,1.14-3.35h1.39a8.56,8.56,0,0,1-1.69,4.23l1.94,2Zm-1.85-2c-.7-.74-2-2.14-3.32-3.6a2.81,2.81,0,0,0-1.52,2.33A2.29,2.29,0,0,0,552.23,32,3.31,3.31,0,0,0,554.66,31Zm-3.58-7A3.14,3.14,0,0,0,552,26c1.19-.66,2-1.27,2-2.24a1.37,1.37,0,0,0-1.37-1.48A1.5,1.5,0,0,0,551.08,24Z"/><circle class="a" cx="284.49" cy="256.54" r="86.81"/><rect class="a" x="58.55" y="449.25" width="440.33" height="55.66" rx="11.53"/><path d="M70.87,470.05H73v7.26h0a4,4,0,0,1,1.56-1.49,4.54,4.54,0,0,1,2.22-.6c1.6,0,4.17,1,4.17,5v6.92H78.87v-6.68c0-1.87-.72-3.46-2.77-3.46a3.12,3.12,0,0,0-2.91,2.11,2.59,2.59,0,0,0-.15,1v7H70.87Z"/><path d="M87.09,472.14v3.34H90.2v1.61H87.09v6.27c0,1.44.42,2.26,1.63,2.26a5.08,5.08,0,0,0,1.26-.14l.1,1.58a5.43,5.43,0,0,1-1.93.29,3,3,0,0,1-2.34-.89,4.21,4.21,0,0,1-.84-3v-6.34H83.12v-1.61H85v-2.79Z"/><path d="M95.27,472.14v3.34h3.11v1.61H95.27v6.27c0,1.44.42,2.26,1.63,2.26a5.21,5.21,0,0,0,1.26-.14l.09,1.58a5.37,5.37,0,0,1-1.92.29,3.06,3.06,0,0,1-2.35-.89,4.26,4.26,0,0,1-.84-3v-6.34H91.29v-1.61h1.85v-2.79Z"/><path d="M100.82,479.28c0-1.49,0-2.7-.1-3.8h2l.1,2h0a4.74,4.74,0,0,1,4.25-2.25c2.89,0,5.06,2.37,5.06,5.91,0,4.18-2.62,6.25-5.43,6.25a4.24,4.24,0,0,1-3.68-1.83h0v6.32h-2.15Zm2.15,3.1a4.51,4.51,0,0,0,.1.86,3.33,3.33,0,0,0,3.26,2.48c2.29,0,3.63-1.83,3.63-4.5,0-2.33-1.26-4.32-3.56-4.32a3.44,3.44,0,0,0-3.28,2.62,3,3,0,0,0-.15.86Z"/><path d="M114.58,485a5.76,5.76,0,0,0,2.86.84c1.58,0,2.32-.77,2.32-1.73s-.62-1.56-2.22-2.14c-2.15-.74-3.16-1.9-3.16-3.29,0-1.88,1.56-3.41,4.12-3.41a6,6,0,0,1,2.94.72l-.54,1.53a4.86,4.86,0,0,0-2.45-.67c-1.28,0-2,.72-2,1.59s.72,1.39,2.28,2c2.07.77,3.13,1.78,3.13,3.51,0,2-1.63,3.48-4.47,3.48a7,7,0,0,1-3.36-.79Z"/><path d="M124.13,477.4a1.44,1.44,0,0,1,1.49-1.51,1.5,1.5,0,1,1-1.49,1.51Zm0,8.49a1.45,1.45,0,0,1,1.49-1.52,1.51,1.51,0,1,1-1.49,1.52Z"/><path d="M127.94,488.07l6.88-17.42h1.68l-6.91,17.42Z"/><path d="M136.41,488.07l6.88-17.42H145l-6.91,17.42Z"/><path d="M146.7,478.63c0-1.2,0-2.19-.1-3.15h1.91l.09,1.87h.08a4.13,4.13,0,0,1,3.75-2.13,3.52,3.52,0,0,1,3.38,2.33h.05A4.77,4.77,0,0,1,157.2,476a4.12,4.12,0,0,1,2.64-.81c1.58,0,3.92,1,3.92,5v6.85h-2.12v-6.58c0-2.24-.84-3.58-2.59-3.58a2.79,2.79,0,0,0-2.57,1.92,3.36,3.36,0,0,0-.17,1.06v7.18h-2.13v-7c0-1.85-.84-3.19-2.49-3.19a2.93,2.93,0,0,0-2.69,2.11,2.89,2.89,0,0,0-.17,1v7H146.7Z"/><path d="M169.72,472.21a1.35,1.35,0,0,1-2.69,0,1.3,1.3,0,0,1,1.35-1.32A1.28,1.28,0,0,1,169.72,472.21Zm-2.42,14.9V475.48h2.17v11.63Z"/><path d="M173.08,478.63c0-1.2,0-2.19-.1-3.15h1.92l.13,1.92h.05a4.41,4.41,0,0,1,3.95-2.18c1.65,0,4.22,1,4.22,4.95v6.94h-2.17v-6.7c0-1.88-.72-3.44-2.77-3.44a3.08,3.08,0,0,0-2.91,2.16,3,3,0,0,0-.15,1v7h-2.17Z"/><path d="M189.2,472.21a1.35,1.35,0,0,1-2.69,0,1.31,1.31,0,0,1,1.36-1.32A1.27,1.27,0,0,1,189.2,472.21Zm-2.42,14.9V475.48H189v11.63Z"/><path d="M192.56,470.05h2.17v17.06h-2.17Z"/><path d="M200.81,472.21a1.35,1.35,0,0,1-2.69,0,1.3,1.3,0,0,1,1.35-1.32A1.28,1.28,0,0,1,200.81,472.21Zm-2.42,14.9V475.48h2.17v11.63Z"/><path d="M203.65,485.86a1.43,1.43,0,0,1,1.48-1.51,1.52,1.52,0,0,1,0,3A1.43,1.43,0,0,1,203.65,485.86Z"/><path d="M220.09,481.2a5.76,5.76,0,0,1-6,6.18,5.61,5.61,0,0,1-5.73-6c0-3.89,2.62-6.17,5.93-6.17S220.09,477.64,220.09,481.2Zm-9.48.12c0,2.55,1.51,4.47,3.63,4.47s3.63-1.9,3.63-4.52c0-2-1-4.47-3.58-4.47S210.61,479.11,210.61,481.32Z"/><path d="M222.83,478.63c0-1.2,0-2.19-.09-3.15h1.92l.12,1.92h.05a4.44,4.44,0,0,1,3.95-2.18c1.66,0,4.23,1,4.23,4.95v6.94h-2.18v-6.7c0-1.88-.71-3.44-2.76-3.44a3.09,3.09,0,0,0-2.92,2.16,3.28,3.28,0,0,0-.14,1v7h-2.18Z"/><path d="M236.54,479.11c0-1.37,0-2.55-.1-3.63h1.9l.08,2.28h.09a3.58,3.58,0,0,1,3.31-2.54,2.35,2.35,0,0,1,.62.07v2a3.21,3.21,0,0,0-.74-.07,3,3,0,0,0-2.91,2.72,5.58,5.58,0,0,0-.1,1v6.2h-2.15Z"/><path d="M245.58,481.68a3.78,3.78,0,0,0,4.09,4,8.13,8.13,0,0,0,3.31-.6l.37,1.51a9.8,9.8,0,0,1-4,.72,5.47,5.47,0,0,1-5.88-5.86c0-3.51,2.13-6.27,5.61-6.27,3.9,0,4.93,3.34,4.93,5.48a7,7,0,0,1-.07,1Zm6.37-1.51c0-1.35-.57-3.44-3-3.44-2.19,0-3.16,2-3.33,3.44Z"/><path d="M256.74,478.63c0-1.2,0-2.19-.1-3.15h1.93l.12,1.92h.05a4.41,4.41,0,0,1,3.95-2.18c1.65,0,4.22,1,4.22,4.95v6.94h-2.17v-6.7c0-1.88-.72-3.44-2.77-3.44a3.08,3.08,0,0,0-2.91,2.16,3,3,0,0,0-.15,1v7h-2.17Z"/><path d="M280.76,470.05v14.06c0,1,0,2.21.1,3h-1.95l-.1-2h-.05a4.43,4.43,0,0,1-4.07,2.29c-2.89,0-5.11-2.38-5.11-5.92,0-3.87,2.44-6.24,5.36-6.24a4,4,0,0,1,3.6,1.77h0v-6.94Zm-2.17,10.16a3.3,3.3,0,0,0-.1-.88,3.17,3.17,0,0,0-3.13-2.46c-2.25,0-3.58,1.93-3.58,4.5,0,2.35,1.18,4.3,3.53,4.3a3.25,3.25,0,0,0,3.18-2.52,3.37,3.37,0,0,0,.1-.92Z"/><path d="M285.58,481.68a3.79,3.79,0,0,0,4.1,4,8.2,8.2,0,0,0,3.31-.6l.37,1.51a9.9,9.9,0,0,1-4,.72,5.46,5.46,0,0,1-5.87-5.86c0-3.51,2.12-6.27,5.6-6.27,3.9,0,4.94,3.34,4.94,5.48a6.7,6.7,0,0,1-.08,1Zm6.37-1.51c0-1.35-.57-3.44-3-3.44-2.2,0-3.16,2-3.34,3.44Z"/><path d="M296.74,479.11c0-1.37,0-2.55-.1-3.63h1.9l.08,2.28h.1a3.56,3.56,0,0,1,3.31-2.54,2.27,2.27,0,0,1,.61.07v2a3.21,3.21,0,0,0-.74-.07,3,3,0,0,0-2.91,2.72,5.58,5.58,0,0,0-.1,1v6.2h-2.15Z"/><path d="M303,485.86a1.44,1.44,0,0,1,1.48-1.51,1.52,1.52,0,1,1-1.48,1.51Z"/><path d="M317.14,486.68a8.19,8.19,0,0,1-3.43.67,5.6,5.6,0,0,1-6-5.93c0-3.59,2.52-6.18,6.42-6.18a7.45,7.45,0,0,1,3,.6l-.5,1.63a5.25,5.25,0,0,0-2.52-.55,4.38,4.38,0,0,0-.07,8.75,6.27,6.27,0,0,0,2.67-.58Z"/><path d="M330.35,481.2a5.76,5.76,0,0,1-6,6.18,5.6,5.6,0,0,1-5.73-6c0-3.89,2.62-6.17,5.93-6.17S330.35,477.64,330.35,481.2Zm-9.48.12c0,2.55,1.5,4.47,3.63,4.47s3.63-1.9,3.63-4.52c0-2-1-4.47-3.58-4.47S320.87,479.11,320.87,481.32Z"/><path d="M333.09,478.63c0-1.2,0-2.19-.1-3.15h1.9l.1,1.87h.08a4.12,4.12,0,0,1,3.75-2.13,3.52,3.52,0,0,1,3.38,2.33h.05a4.87,4.87,0,0,1,1.33-1.52,4.17,4.17,0,0,1,2.65-.81c1.58,0,3.92,1,3.92,5v6.85H348v-6.58c0-2.24-.84-3.58-2.59-3.58a2.79,2.79,0,0,0-2.57,1.92,3.36,3.36,0,0,0-.17,1.06v7.18h-2.13v-7c0-1.85-.84-3.19-2.49-3.19a2.93,2.93,0,0,0-2.69,2.11,2.69,2.69,0,0,0-.18,1v7h-2.12Z"/><path d="M351.86,488.07l6.89-17.42h1.68l-6.92,17.42Z"/><path d="M372.45,475.48c-.05.84-.1,1.78-.1,3.2v6.75c0,2.67-.54,4.3-1.7,5.31a6.44,6.44,0,0,1-4.35,1.39,7.8,7.8,0,0,1-4-1l.54-1.61a6.9,6.9,0,0,0,3.51.92c2.22,0,3.85-1.13,3.85-4.06v-1.3h-.05a4.3,4.3,0,0,1-3.8,1.94c-3,0-5.09-2.45-5.09-5.67,0-3.94,2.64-6.17,5.38-6.17a4,4,0,0,1,3.73,2h.05l.1-1.75Zm-2.24,4.59a2.9,2.9,0,0,0-.13-1,3.12,3.12,0,0,0-3-2.24c-2.07,0-3.55,1.71-3.55,4.4,0,2.28,1.18,4.18,3.53,4.18a3.16,3.16,0,0,0,3-2.16,3.42,3.42,0,0,0,.18-1.13Z"/><path d="M381,479.83v1.56h-6.1v-1.56Z"/><path d="M384.26,475.48,386.6,482a28.52,28.52,0,0,1,1,3h.07c.27-1,.62-1.93,1-3l2.32-6.54h2.27l-4.69,11.63h-2.07l-4.54-11.63Z"/><path d="M398.06,482l-1.73,5.09h-2.22l5.65-16.2h2.6l5.68,16.2h-2.3L404,482Zm5.46-1.64-1.63-4.66c-.37-1.06-.62-2-.87-3h0c-.24,1-.51,1.95-.84,2.94l-1.63,4.68Z"/><path d="M409.4,485.89l5.4-6.85c.52-.63,1-1.18,1.56-1.81v0h-6.47v-1.71H419l0,1.32-5.33,6.75c-.49.65-1,1.23-1.53,1.83v.05h7v1.68h-9.7Z"/><path d="M421.32,479.28c0-1.49-.05-2.7-.1-3.8h1.95l.1,2h.05a4.74,4.74,0,0,1,4.25-2.25c2.89,0,5.06,2.37,5.06,5.91,0,4.18-2.62,6.25-5.43,6.25a4.24,4.24,0,0,1-3.68-1.83h0v6.32h-2.15Zm2.15,3.1a4.51,4.51,0,0,0,.1.86,3.33,3.33,0,0,0,3.26,2.48c2.29,0,3.63-1.83,3.63-4.5,0-2.33-1.26-4.32-3.56-4.32a3.44,3.44,0,0,0-3.28,2.62,3,3,0,0,0-.15.86Z"/><path d="M441.4,487.11v-4.25h-7.46v-1.4l7.16-10h2.35v9.71h2.24v1.66h-2.24v4.25Zm0-5.91V476c0-.81,0-1.63.07-2.45h-.07c-.5.92-.89,1.59-1.34,2.31l-3.92,5.31v.05Z"/><path d="M458.58,488.91v1.21H446.24v-1.21Z"/><path d="M460.46,471.13a32,32,0,0,1,4.57-.34c3.09,0,5.28.7,6.74,2a7.37,7.37,0,0,1,2.35,5.82,8.42,8.42,0,0,1-2.4,6.29c-1.55,1.52-4.12,2.34-7.36,2.34a35.48,35.48,0,0,1-3.9-.2Zm2.15,14.32a13.41,13.41,0,0,0,2.17.12c4.6,0,7.09-2.5,7.09-6.87,0-3.82-2.2-6.25-6.74-6.25a12.53,12.53,0,0,0-2.52.22Z"/><path d="M486.81,479.13c0,5.31-2,8.25-5.58,8.25-3.14,0-5.26-2.86-5.31-8s2.32-8.12,5.58-8.12S486.81,474.16,486.81,479.13Zm-8.72.24c0,4.06,1.29,6.37,3.26,6.37,2.22,0,3.29-2.52,3.29-6.51s-1-6.37-3.26-6.37C479.48,472.86,478.09,475.12,478.09,479.37Z"/><path d="M260.63,407a3.88,3.88,0,1,1,5.49-5.49L279.59,415V373.9a3.89,3.89,0,1,1,7.77,0V415l13.45-13.47A3.88,3.88,0,0,1,306.3,407l-20.09,20.09a3.92,3.92,0,0,1-2.75,1.14,3.85,3.85,0,0,1-2.74-1.14Z"/><path d="M260.63,121.83a3.88,3.88,0,1,1,5.49-5.49l13.47,13.47V88.73a3.89,3.89,0,1,1,7.77,0v41.08l13.45-13.47a3.88,3.88,0,0,1,5.49,5.49l-20.09,20.09a3.92,3.92,0,0,1-2.75,1.14,3.85,3.85,0,0,1-2.74-1.14Z"/><path class="b" d="M297.31,269.36a26.79,26.79,0,0,1-6.54,10.53l-23.7,23.69c-9.4,9.41-23.66,10.4-31.84,2.22S228,283.36,237.44,274l23.7-23.69a26.75,26.75,0,0,1,10.53-6.55c-2.52,7.65-1.15,15.84,4.32,21.32S289.67,271.87,297.31,269.36Z"/><path class="c" d="M333.75,207.27c8.18,8.19,7.19,22.44-2.21,31.85l-23.7,23.7a26.72,26.72,0,0,1-10.53,6.54c2.52-7.64,1.15-15.84-4.33-21.32s-13.67-6.84-21.31-4.33a26.76,26.76,0,0,1,6.54-10.52l23.7-23.7C311.31,200.08,325.57,199.09,333.75,207.27Z"/><path class="d" d="M294.06,247c5.48,5.48,6.37,14.16,3.14,22.51-8.36,3.23-17,2.34-22.51-3.13s-6.37-14.16-3.14-22.51C279.91,240.6,288.59,241.49,294.06,247Z"/></svg>